<mxfile host="Electron" modified="2024-04-29T22:03:56.373Z" agent="Mozilla/5.0 (X11; Linux x86_64) AppleWebKit/537.36 (KHTML, like Gecko) draw.io/23.1.5 Chrome/120.0.6099.109 Electron/28.1.0 Safari/537.36" etag="HnloLxM-B2zSAwHJuDQ_" version="23.1.5" type="device">
  <diagram name="Page-1" id="wt2IBzU7SiqHOmF2pQIF">
    <mxGraphModel dx="1835" dy="1056" grid="0" gridSize="10" guides="1" tooltips="1" connect="1" arrows="1" fold="1" page="0" pageScale="1" pageWidth="850" pageHeight="1100" math="0" shadow="0">
      <root>
        <mxCell id="0" />
        <mxCell id="1" parent="0" />
        <mxCell id="3hQ3OupTa12ypxB3-eQS-16" value="" style="rounded=0;whiteSpace=wrap;html=1;" vertex="1" parent="1">
          <mxGeometry x="-558" y="-42" width="581" height="396" as="geometry" />
        </mxCell>
        <mxCell id="3hQ3OupTa12ypxB3-eQS-1" value="" style="group" vertex="1" connectable="0" parent="1">
          <mxGeometry x="-187" y="194" width="189" height="142" as="geometry" />
        </mxCell>
        <mxCell id="3hQ3OupTa12ypxB3-eQS-2" value="&lt;font style=&quot;font-size: 19px;&quot;&gt;Product&lt;/font&gt;" style="rounded=0;whiteSpace=wrap;html=1;" vertex="1" parent="3hQ3OupTa12ypxB3-eQS-1">
          <mxGeometry width="189" height="41" as="geometry" />
        </mxCell>
        <mxCell id="3hQ3OupTa12ypxB3-eQS-3" value="&lt;div style=&quot;font-size: 14px;&quot; align=&quot;left&quot;&gt;&lt;font style=&quot;font-size: 14px;&quot;&gt;&amp;nbsp;ID PK&lt;/font&gt;&lt;/div&gt;&lt;div style=&quot;font-size: 14px;&quot; align=&quot;left&quot;&gt;&amp;nbsp;unite_id*&lt;br&gt;&lt;/div&gt;&lt;div style=&quot;font-size: 14px;&quot; align=&quot;left&quot;&gt;&amp;nbsp;brand_id*&lt;/div&gt;&lt;div style=&quot;font-size: 14px;&quot; align=&quot;left&quot;&gt;&amp;nbsp;category_id*&lt;/div&gt;&lt;div style=&quot;font-size: 14px;&quot; align=&quot;left&quot;&gt;&lt;font style=&quot;font-size: 14px;&quot;&gt;&amp;nbsp;...Product data&lt;br&gt;&lt;/font&gt;&lt;/div&gt;" style="rounded=0;whiteSpace=wrap;html=1;align=left;" vertex="1" parent="3hQ3OupTa12ypxB3-eQS-1">
          <mxGeometry y="41" width="189" height="101" as="geometry" />
        </mxCell>
        <mxCell id="3hQ3OupTa12ypxB3-eQS-4" value="" style="group" vertex="1" connectable="0" parent="1">
          <mxGeometry x="-533" y="194" width="189" height="103" as="geometry" />
        </mxCell>
        <mxCell id="3hQ3OupTa12ypxB3-eQS-5" value="&lt;font style=&quot;font-size: 19px;&quot;&gt;Purchase&lt;/font&gt;" style="rounded=0;whiteSpace=wrap;html=1;" vertex="1" parent="3hQ3OupTa12ypxB3-eQS-4">
          <mxGeometry width="189" height="41" as="geometry" />
        </mxCell>
        <mxCell id="3hQ3OupTa12ypxB3-eQS-6" value="&lt;div style=&quot;font-size: 14px;&quot; align=&quot;left&quot;&gt;&lt;font style=&quot;font-size: 14px;&quot;&gt;&amp;nbsp;ID PK&lt;br&gt;&lt;/font&gt;&lt;/div&gt;&lt;div style=&quot;font-size: 14px;&quot; align=&quot;left&quot;&gt;&lt;font style=&quot;font-size: 14px;&quot;&gt;&amp;nbsp;...Purchase data&lt;br&gt;&lt;/font&gt;&lt;/div&gt;" style="rounded=0;whiteSpace=wrap;html=1;align=left;" vertex="1" parent="3hQ3OupTa12ypxB3-eQS-4">
          <mxGeometry y="41" width="189" height="50" as="geometry" />
        </mxCell>
        <mxCell id="3hQ3OupTa12ypxB3-eQS-7" value="" style="group" vertex="1" connectable="0" parent="1">
          <mxGeometry x="-533" y="-4" width="189" height="103" as="geometry" />
        </mxCell>
        <mxCell id="3hQ3OupTa12ypxB3-eQS-8" value="&lt;font style=&quot;font-size: 19px;&quot;&gt;Supplier&lt;/font&gt;" style="rounded=0;whiteSpace=wrap;html=1;" vertex="1" parent="3hQ3OupTa12ypxB3-eQS-7">
          <mxGeometry width="189" height="41" as="geometry" />
        </mxCell>
        <mxCell id="3hQ3OupTa12ypxB3-eQS-9" value="&lt;div style=&quot;font-size: 14px;&quot; align=&quot;left&quot;&gt;&lt;font style=&quot;font-size: 14px;&quot;&gt;&amp;nbsp;ID PK&lt;br&gt;&lt;/font&gt;&lt;/div&gt;&lt;div style=&quot;font-size: 14px;&quot; align=&quot;left&quot;&gt;&lt;font style=&quot;font-size: 14px;&quot;&gt;&amp;nbsp;Name&lt;/font&gt;&lt;/div&gt;&lt;div style=&quot;font-size: 14px;&quot; align=&quot;left&quot;&gt;&lt;font style=&quot;font-size: 14px;&quot;&gt;&amp;nbsp;...Purchase data&lt;br&gt;&lt;/font&gt;&lt;/div&gt;" style="rounded=0;whiteSpace=wrap;html=1;align=left;" vertex="1" parent="3hQ3OupTa12ypxB3-eQS-7">
          <mxGeometry y="41" width="189" height="62" as="geometry" />
        </mxCell>
        <mxCell id="3hQ3OupTa12ypxB3-eQS-10" value="" style="group" vertex="1" connectable="0" parent="1">
          <mxGeometry x="-187" y="-20" width="189" height="136" as="geometry" />
        </mxCell>
        <mxCell id="3hQ3OupTa12ypxB3-eQS-11" value="&lt;font style=&quot;font-size: 19px;&quot;&gt;Pur_prod_supp&lt;/font&gt;" style="rounded=0;whiteSpace=wrap;html=1;" vertex="1" parent="3hQ3OupTa12ypxB3-eQS-10">
          <mxGeometry width="189" height="41" as="geometry" />
        </mxCell>
        <mxCell id="3hQ3OupTa12ypxB3-eQS-12" value="&lt;div style=&quot;font-size: 14px;&quot; align=&quot;left&quot;&gt;&lt;font style=&quot;font-size: 14px;&quot;&gt;&amp;nbsp;ID PK&lt;br&gt;&lt;/font&gt;&lt;/div&gt;&lt;div style=&quot;font-size: 14px;&quot; align=&quot;left&quot;&gt;&lt;font style=&quot;font-size: 14px;&quot;&gt;&amp;nbsp;product_id*&lt;/font&gt;&lt;/div&gt;&lt;div style=&quot;font-size: 14px;&quot; align=&quot;left&quot;&gt;&lt;font style=&quot;font-size: 14px;&quot;&gt;&amp;nbsp;purchase_id*&lt;/font&gt;&lt;/div&gt;&lt;div style=&quot;font-size: 14px;&quot; align=&quot;left&quot;&gt;&lt;font style=&quot;font-size: 14px;&quot;&gt;&amp;nbsp;supplier_id*&lt;br&gt;&lt;/font&gt;&lt;/div&gt;&lt;div style=&quot;font-size: 14px;&quot; align=&quot;left&quot;&gt;&lt;font style=&quot;font-size: 14px;&quot;&gt;&amp;nbsp;...Purchase data&lt;br&gt;&lt;/font&gt;&lt;/div&gt;" style="rounded=0;whiteSpace=wrap;html=1;align=left;" vertex="1" parent="3hQ3OupTa12ypxB3-eQS-10">
          <mxGeometry y="41" width="189" height="95" as="geometry" />
        </mxCell>
        <mxCell id="3hQ3OupTa12ypxB3-eQS-13" style="edgeStyle=orthogonalEdgeStyle;rounded=0;orthogonalLoop=1;jettySize=auto;html=1;entryX=0;entryY=0.75;entryDx=0;entryDy=0;endArrow=ERmany;endFill=0;" edge="1" parent="1" source="3hQ3OupTa12ypxB3-eQS-5" target="3hQ3OupTa12ypxB3-eQS-12">
          <mxGeometry relative="1" as="geometry" />
        </mxCell>
        <mxCell id="3hQ3OupTa12ypxB3-eQS-14" style="edgeStyle=orthogonalEdgeStyle;rounded=0;orthogonalLoop=1;jettySize=auto;html=1;entryX=0;entryY=0.5;entryDx=0;entryDy=0;endArrow=ERmany;endFill=0;" edge="1" parent="1" source="3hQ3OupTa12ypxB3-eQS-9" target="3hQ3OupTa12ypxB3-eQS-12">
          <mxGeometry relative="1" as="geometry" />
        </mxCell>
        <mxCell id="3hQ3OupTa12ypxB3-eQS-15" value="" style="edgeStyle=orthogonalEdgeStyle;rounded=0;orthogonalLoop=1;jettySize=auto;html=1;endArrow=ERmany;endFill=0;" edge="1" parent="1" source="3hQ3OupTa12ypxB3-eQS-2" target="3hQ3OupTa12ypxB3-eQS-12">
          <mxGeometry relative="1" as="geometry" />
        </mxCell>
      </root>
    </mxGraphModel>
  </diagram>
</mxfile>
